<svg width="10" height="12" viewBox="0 0 10 12" fill="none" xmlns="http://www.w3.org/2000/svg">
<path d="M5.53108 5.99229L9.77976 10.0867C10.0734 10.3697 10.0734 10.8274 9.77976 11.1073L9.07373 11.7878C8.78007 12.0707 8.30522 12.0707 8.01468 11.7878L5.00312 8.8855L1.99157 11.7878C1.69791 12.0708 1.22306 12.0708 0.932522 11.7878L0.220244 11.1104C-0.073414 10.8274 -0.073414 10.3697 0.220244 10.0898L4.46892 5.9953C4.76257 5.70929 5.23743 5.70929 5.53108 5.99229ZM4.46891 0.211876L0.220244 4.30633C-0.0734145 4.58933 -0.0734145 5.04695 0.220244 5.32694L0.926274 6.00734C1.21993 6.29034 1.69478 6.29034 1.98532 6.00734L5 3.1081L8.01156 6.01035C8.30522 6.29335 8.78007 6.29335 9.0706 6.01035L9.77976 5.32995C10.0734 5.04695 10.0734 4.58933 9.77976 4.30934L5.53108 0.214886C5.23742 -0.0711237 4.76257 -0.0711236 4.46891 0.211876Z" fill="#27AE60"/>
</svg>
