<svg width="10" height="12" viewBox="0 0 10 12" fill="none" xmlns="http://www.w3.org/2000/svg">
<path d="M4.46892 6.00771L0.220244 1.91326C-0.0734145 1.63026 -0.0734145 1.17264 0.220244 0.892652L0.926273 0.212249C1.21993 -0.0707498 1.69478 -0.0707498 1.98532 0.212249L4.99688 3.1145L8.00843 0.212249C8.30209 -0.0707498 8.77694 -0.0707498 9.06748 0.212249L9.77976 0.889641C10.0734 1.17264 10.0734 1.63026 9.77976 1.91025L5.53108 6.0047C5.23743 6.29071 4.76257 6.29071 4.46892 6.00771ZM5.53108 11.7881L9.77976 7.69367C10.0734 7.41067 10.0734 6.95305 9.77976 6.67306L9.07373 5.99266C8.78007 5.70966 8.30522 5.70966 8.01468 5.99266L5 8.8919L1.98844 5.98965C1.69478 5.70665 1.21993 5.70665 0.929397 5.98965L0.220244 6.67005C-0.0734145 6.95305 -0.0734145 7.41067 0.220244 7.69066L4.46892 11.7851C4.76257 12.0711 5.23743 12.0711 5.53108 11.7881Z" fill="#27AE60"/>
</svg>
