<svg width="30" height="39" viewBox="0 0 30 39" fill="none" xmlns="http://www.w3.org/2000/svg">
<path d="M28.51 0H20.37C18.18 0 16.39 1.77998 16.39 3.97998V4.82001H13.11V3.97998C13.11 1.78998 11.33 0 9.13 0H0.98999C0.43999 0 0 0.43999 0 0.98999C0 1.53999 0.43999 1.97998 0.98999 1.97998H9.13C10.23 1.97998 11.12 2.86997 11.12 3.96997V4.81H8.31C7.76 4.81 7.32001 5.24999 7.32001 5.79999V8.87H4.73999C4.18999 8.87 3.75 9.30999 3.75 9.85999V37.94C3.75 38.49 4.18999 38.93 4.73999 38.93H24.74C25.29 38.93 25.73 38.49 25.73 37.94V9.85999C25.73 9.30999 25.29 8.87 24.74 8.87H22.16V5.79999C22.16 5.24999 21.72 4.81 21.17 4.81H18.36V3.96997C18.36 2.86997 19.25 1.97998 20.35 1.97998H28.49C29.04 1.97998 29.48 1.53999 29.48 0.98999C29.5 0.44999 29.05 0 28.51 0ZM14.75 30.98C12.52 30.98 10.7 29.16 10.7 26.93C10.7 24.7 12.52 22.88 14.75 22.88C16.98 22.88 18.8 24.7 18.8 26.93C18.8 29.17 16.98 30.98 14.75 30.98ZM21.18 10.86H23.76V14.62H5.73999V10.86H8.32001H21.18Z" fill="#2E5A66"/>
</svg>
