<svg width="33" height="41" viewBox="0 0 33 41" fill="none" xmlns="http://www.w3.org/2000/svg">
<path d="M26.1452 20.03C26.0652 19.65 25.7352 19.38 25.3452 19.38H7.11518C6.72518 19.38 6.39519 19.65 6.31519 20.03L3.24519 35.08C3.19519 35.32 3.25523 35.57 3.41523 35.76C3.57523 35.95 3.80523 36.06 4.04523 36.06H15.4152V38.42H12.7352C12.2852 38.42 11.9152 38.79 11.9152 39.24C11.9152 39.69 12.2852 40.06 12.7352 40.06H19.7352C20.1852 40.06 20.5552 39.69 20.5552 39.24C20.5552 38.79 20.1852 38.42 19.7352 38.42H17.0552V36.06H28.4252H28.4352C28.8852 36.06 29.2552 35.69 29.2552 35.24C29.2552 35.14 29.2352 35.05 29.2052 34.97L26.1452 20.03ZM9.1952 34.43H5.04524L5.91523 30.15H9.64521L9.1952 34.43ZM9.8252 28.52H6.2552L6.96522 25.01H10.1852L9.8252 28.52ZM10.3652 23.38H7.30518L7.78523 21.01H10.6152L10.3652 23.38ZM15.4152 34.43H10.8352L11.2852 30.15H15.4152V34.43ZM15.4152 28.52H11.4552L11.8252 25.01H15.4152V28.52ZM15.4152 23.38H12.0052L12.2552 21.01H15.4152V23.38ZM17.0452 21.01H20.2052L20.4552 23.38H17.0452V21.01ZM17.0452 25.01H20.6352L21.0052 28.52H17.0452V25.01ZM17.0452 34.43V30.15H21.1752L21.6252 34.43H17.0452ZM21.8552 21.01H24.6852L25.1652 23.38H22.1052L21.8552 21.01ZM22.2752 25.01H25.4952L26.2052 28.52H22.6352L22.2752 25.01ZM23.2652 34.43L22.8152 30.15H26.5452L27.4152 34.43H23.2652Z" fill="#2E5A66"/>
<path d="M31.4053 11.17L24.4653 13.29C23.9753 12.08 23.2253 11.01 22.2853 10.14L26.9353 5.13C27.2453 4.8 27.2253 4.28001 26.8953 3.98001C26.5653 3.67001 26.0453 3.69002 25.7453 4.02002L20.9953 9.14001C19.8553 8.42001 18.5453 7.95001 17.1353 7.82001V0.820007C17.1353 0.370007 16.7653 0 16.3153 0C15.8653 0 15.4953 0.370007 15.4953 0.820007V7.82001C14.0553 7.95001 12.7153 8.44 11.5553 9.19L6.7153 4.02002C6.4053 3.69002 5.89527 3.67001 5.56527 3.98001C5.23527 4.29001 5.21529 4.8 5.52529 5.13L10.2653 10.19C9.34528 11.06 8.61528 12.13 8.13528 13.33L1.05526 11.17C0.625262 11.04 0.165303 11.28 0.0353031 11.71C-0.0946969 12.14 0.145281 12.6 0.575281 12.73L7.67526 14.9C7.57526 15.44 7.51528 16 7.51528 16.57C7.51528 17.02 7.88529 17.39 8.33529 17.39C8.78529 17.39 23.8453 17.39 24.2953 17.39C24.7453 17.39 25.1153 17.02 25.1153 16.57C25.1153 15.98 25.0553 15.41 24.9453 14.85L31.8853 12.73C32.3153 12.6 32.5553 12.14 32.4253 11.71C32.2953 11.28 31.8353 11.04 31.4053 11.17Z" fill="#2E5A66"/>
</svg>
