<svg width="21" height="21" viewBox="0 0 21 21" fill="none" xmlns="http://www.w3.org/2000/svg">
<path d="M18.75 0H2.25C1.00781 0 0 1.00781 0 2.25V18.75C0 19.9922 1.00781 21 2.25 21H18.75C19.9922 21 21 19.9922 21 18.75V2.25C21 1.00781 19.9922 0 18.75 0ZM17.25 11.8125C17.25 12.1219 16.9969 12.375 16.6875 12.375H12.375V16.6875C12.375 16.9969 12.1219 17.25 11.8125 17.25H9.1875C8.87813 17.25 8.625 16.9969 8.625 16.6875V12.375H4.3125C4.00313 12.375 3.75 12.1219 3.75 11.8125V9.1875C3.75 8.87813 4.00313 8.625 4.3125 8.625H8.625V4.3125C8.625 4.00313 8.87813 3.75 9.1875 3.75H11.8125C12.1219 3.75 12.375 4.00313 12.375 4.3125V8.625H16.6875C16.9969 8.625 17.25 8.87813 17.25 9.1875V11.8125Z" fill="#00BCD4"/>
</svg>
