<svg width="37" height="32" viewBox="0 0 37 32" fill="none" xmlns="http://www.w3.org/2000/svg">
<path d="M35.18 0H0.940002C0.420002 0 0 0.420002 0 0.940002V18.39C0 18.91 0.420002 19.33 0.940002 19.33H35.18C35.7 19.33 36.12 18.91 36.12 18.39V0.940002C36.12 0.420002 35.7 0 35.18 0ZM34.24 17.45H1.88V1.88H34.24V17.45Z" fill="#2E5A66"/>
<path d="M10.14 11.56C9.61998 11.56 9.19998 11.98 9.19998 12.5V15.94C9.19998 17.73 8.49996 19.41 7.23996 20.67C5.61996 22.29 4.72998 24.44 4.72998 26.73V30.17C4.72998 30.69 5.14998 31.11 5.66998 31.11C6.18998 31.11 6.60995 30.69 6.60995 30.17V26.73C6.60995 24.94 7.30998 23.26 8.56998 22C10.19 20.38 11.08 18.23 11.08 15.94V12.5C11.08 11.98 10.66 11.56 10.14 11.56Z" fill="#2E5A66"/>
<path d="M7.22998 13.21H13.04L10.14 7.97998L7.22998 13.21Z" fill="#2E5A66"/>
<path d="M18.8402 11.56C18.3202 11.56 17.9002 11.98 17.9002 12.5V15.94C17.9002 17.73 17.2002 19.41 15.9402 20.67C14.3202 22.29 13.4302 24.44 13.4302 26.73V30.17C13.4302 30.69 13.8502 31.11 14.3702 31.11C14.8902 31.11 15.3102 30.69 15.3102 30.17V26.73C15.3102 24.94 16.0102 23.26 17.2702 22C18.8902 20.38 19.7802 18.23 19.7802 15.94V12.5C19.7802 11.98 19.3602 11.56 18.8402 11.56Z" fill="#2E5A66"/>
<path d="M15.9302 13.21H21.7502L18.8402 7.97998L15.9302 13.21Z" fill="#2E5A66"/>
<path d="M27.5501 11.56C27.0301 11.56 26.6101 11.98 26.6101 12.5V15.94C26.6101 17.73 25.9101 19.41 24.6501 20.67C23.0301 22.29 22.1401 24.44 22.1401 26.73V30.17C22.1401 30.69 22.5601 31.11 23.0801 31.11C23.6001 31.11 24.0201 30.69 24.0201 30.17V26.73C24.0201 24.94 24.7201 23.26 25.9801 22C27.6001 20.38 28.4901 18.23 28.4901 15.94V12.5C28.4901 11.98 28.0701 11.56 27.5501 11.56Z" fill="#2E5A66"/>
<path d="M24.6401 13.21H30.4501L27.5501 7.97998L24.6401 13.21Z" fill="#2E5A66"/>
</svg>
