<svg width="44" height="41" viewBox="0 0 44 41" fill="none" xmlns="http://www.w3.org/2000/svg">
<path d="M22.3218 5.59254C22.0218 5.36254 21.6118 5.36254 21.3118 5.59254L3.33176 19.6326C3.05176 19.8526 2.94175 20.2125 3.06175 20.5525C3.17175 20.8825 3.49175 21.1026 3.84175 21.1026H7.25175V39.8625C7.25175 40.3125 7.62175 40.6825 8.07175 40.6825H35.5817C36.0317 40.6825 36.4018 40.3125 36.4018 39.8625V21.1026H39.8118C40.1618 21.1026 40.4718 20.8825 40.5918 20.5525C40.7018 20.2225 40.6018 19.8526 40.3218 19.6326L22.3218 5.59254ZM35.5718 19.4525C35.1218 19.4525 34.7517 19.8225 34.7517 20.2725V39.0325H8.89175V20.2725C8.89175 19.8225 8.52175 19.4525 8.07175 19.4525H6.23175L21.8218 7.28255L37.4118 19.4525H35.5718Z" fill="#2E5A66"/>
<path d="M22.4918 0.2325C22.0918 -0.0775 21.5418 -0.0775 21.1418 0.2325L0.421767 16.4025C-0.0582329 16.7725 -0.138235 17.4625 0.231765 17.9425C0.451765 18.2225 0.771767 18.3625 1.10177 18.3625C1.34177 18.3625 1.57177 18.2825 1.77177 18.1325L21.8118 2.49251L41.8518 18.1325C42.3318 18.5025 43.0218 18.4225 43.3918 17.9425C43.7618 17.4625 43.6818 16.7725 43.2018 16.4025L22.4918 0.2325Z" fill="#2E5A66"/>
</svg>
